<svg width="800" height="400" viewBox="0 0 800 400" fill="none" xmlns="http://www.w3.org/2000/svg">
  <rect width="800" height="400" fill="#0d1117"/>
  <rect x="0" y="0" width="800" height="400" fill="url(#grad1)" opacity="0.3"/>
  <defs>
    <radialGradient id="grad1" cx="50%" cy="50%" r="60%">
      <stop offset="0%" stop-color="#1a3a5c"/>
      <stop offset="100%" stop-color="#0d1117"/>
    </radialGradient>
  </defs>
  <path d="M400 120c-44.2 0-80 35.8-80 80 0 35.4 22.9 65.4 54.7 76 4 .7 5.5-1.7 5.5-3.8 0-1.9-.1-8.1-.1-14.7-22.3 4.8-27-9.4-27-9.4-3.6-9.2-8.9-11.7-8.9-11.7-7.3-5 .5-4.9.5-4.9 8 .6 12.3 8.3 12.3 8.3 7.1 12.2 18.7 8.7 23.2 6.6.7-5.2 2.8-8.7 5.1-10.7-17.8-2-36.5-8.9-36.5-39.6 0-8.7 3.1-15.9 8.3-21.5-.8-2-3.6-10.2.8-21.2 0 0 6.7-2.2 22 8.2 6.4-1.8 13.2-2.7 20-2.7 6.8 0 13.6.9 20 2.7 15.3-10.3 22-8.2 22-8.2 4.4 11 1.6 19.2.8 21.2 5.1 5.6 8.3 12.8 8.3 21.5 0 30.8-18.8 37.6-36.6 39.6 2.9 2.5 5.4 7.3 5.4 14.8 0 10.7-.1 19.3-.1 21.9 0 2.1 1.5 4.6 5.5 3.8C457.1 265.4 480 235.4 480 200c0-44.2-35.8-80-80-80z" fill="#8b949e"/>
</svg>
