<svg width="800" height="400" viewBox="0 0 800 400" fill="none" xmlns="http://www.w3.org/2000/svg">
  <rect width="800" height="400" fill="#0d1117"/>
  <rect x="0" y="0" width="800" height="400" fill="url(#grad2)" opacity="0.3"/>
  <defs>
    <radialGradient id="grad2" cx="50%" cy="50%" r="60%">
      <stop offset="0%" stop-color="#3a2a1c"/>
      <stop offset="100%" stop-color="#0d1117"/>
    </radialGradient>
  </defs>
  <g transform="translate(350, 120) scale(4.2)">
    <path d="M12 0C5.373 0 0 5.373 0 12c0 3.314 1.344 6.314 3.516 8.484A4.482 4.482 0 0 1 7.5 18a4.5 4.5 0 0 1 9 0 4.482 4.482 0 0 1 3.984 2.484A11.957 11.957 0 0 0 24 12c0-6.627-5.373-12-12-12z" fill="#FFD21E"/>
    <circle cx="8.5" cy="10" r="2" fill="#1a1a2e"/>
    <circle cx="15.5" cy="10" r="2" fill="#1a1a2e"/>
    <ellipse cx="12" cy="15" rx="3" ry="1.5" fill="#FF9D00" opacity="0.6"/>
  </g>
</svg>
