<svg width="800" height="400" viewBox="0 0 800 400" fill="none" xmlns="http://www.w3.org/2000/svg">
  <rect width="800" height="400" fill="#0d1117"/>
  <rect x="0" y="0" width="800" height="400" fill="url(#grad2)" opacity="0.3"/>
  <defs>
    <radialGradient id="grad2" cx="50%" cy="50%" r="60%">
      <stop offset="0%" stop-color="#3a2a1c"/>
      <stop offset="100%" stop-color="#0d1117"/>
    </radialGradient>
  </defs>
  <g transform="translate(310, 110) scale(0.36)">
    <path d="M496.592 369.699C500.563 381.093 499.61 393.227 494.315 403.778C490.503 411.48 485.05 417.441 478.379 422.769C470.331 429.099 460.324 434.48 448.253 439.65C433.852 445.77 416.274 451.52 408.226 453.63C387.63 458.958 367.829 462.334 347.762 462.493C319.066 462.756 294.34 456.004 276.762 438.753C267.656 439.861 258.443 440.494 249.178 440.494C240.389 440.494 231.706 439.967 223.076 438.912C205.445 456.057 180.825 462.756 152.234 462.493C132.168 462.334 112.366 458.958 91.7177 453.63C83.7229 451.52 66.145 445.77 51.7439 439.65C39.6723 434.48 29.6656 429.099 21.6708 422.769C14.9467 417.441 9.49334 411.48 5.68127 403.778C0.439661 393.227 -0.566304 381.093 3.45755 369.699C-0.248631 360.994 -1.20165 351.024 1.71035 339.998C3.03399 334.987 5.20476 330.344 7.95792 326.229C7.37552 324.067 6.89901 321.851 6.58134 319.424C4.56941 304.97 9.59923 291.781 19.0765 281.547C23.7357 276.43 28.7655 272.895 34.0071 270.627C30.1421 254.273 28.1302 237.445 28.1302 220.247C28.1302 98.5969 127.085 0 249.178 0C291.111 0 330.343 11.6058 363.805 31.8633C369.84 35.5561 375.77 39.5126 381.436 43.7329C384.242 45.8431 387.048 48.006 389.748 50.2744C392.501 52.49 395.201 54.8112 397.796 57.1851C405.632 64.3069 412.991 71.9562 419.715 80.133C421.992 82.8235 424.163 85.6194 426.28 88.4681C430.569 94.1128 434.54 99.9685 438.193 106.035C443.752 115.109 448.623 124.604 452.859 134.469C455.665 141.064 458.101 147.816 460.271 154.727C463.501 165.067 465.99 175.723 467.684 186.696C468.213 190.336 468.69 194.028 469.06 197.721C469.802 205.107 470.225 212.598 470.225 220.247C470.225 237.234 468.213 253.904 464.454 269.994C470.278 272.262 475.784 275.955 480.92 281.547C490.397 291.781 495.427 305.022 493.415 319.477C493.098 321.851 492.621 324.067 492.039 326.229C494.792 330.344 496.963 334.987 498.286 339.998C501.198 351.024 500.245 360.994 496.592 369.699Z" fill="#FFD21E"/>
    <path d="M250 405.5C352.173 405.5 435 323.232 435 221.75C435 120.268 352.173 38 250 38C147.827 38 65 120.268 65 221.75C65 323.232 147.827 405.5 250 405.5Z" fill="#FFD21E"/>
    <path d="M319.277 228.901C319.277 205.236 288.585 241.304 250.637 241.465C212.692 241.306 182 205.238 182 228.901C182 244.591 189.507 270.109 209.669 285.591C213.681 271.787 235.726 260.729 238.877 262.317C243.364 264.578 243.112 270.844 250.637 276.365C258.163 270.844 257.911 264.58 262.398 262.317C265.551 260.729 287.594 271.787 291.605 285.591C311.767 270.109 319.275 244.591 319.275 228.903L319.277 228.901Z" fill="#0E1116"/>
    <path d="M262.4 262.315C257.913 264.576 258.165 270.842 250.639 276.363C243.114 270.842 243.366 264.578 238.879 262.315C235.726 260.727 213.683 271.785 209.672 285.589C219.866 293.417 233.297 298.678 250.627 298.806C267.986 298.68 281.417 293.417 291.611 285.589C287.6 271.785 265.555 260.727 262.404 262.315H262.4Z" fill="#FF323D"/>
    <path d="M313.06 171.596C319.796 173.968 322.476 187.779 329.281 184.171C342.167 177.337 347.06 161.377 340.208 148.524C333.356 135.671 317.354 130.792 304.467 137.626C291.58 144.46 286.688 160.419 293.54 173.272C296.774 179.339 307.039 169.475 313.06 171.596Z" fill="#0E1116"/>
    <path d="M188.554 171.596C181.818 173.968 179.138 187.779 172.334 184.171C159.447 177.337 154.555 161.377 161.407 148.524C168.259 135.671 184.26 130.792 197.147 137.626C210.034 144.46 214.926 160.419 208.074 173.272C204.84 179.339 194.575 169.475 188.554 171.596Z" fill="#0E1116"/>
  </g>
</svg>
